# xmcd CD database file
#
# Track frame offsets:
#	150
#	18541
#	35897
#	55994
#	72975
#	93944
#	113401
#	134685
#	157074
#	184628
#	216333
#
# Disc length: 3233 seconds
#
# Revision: 0
# Processed by: cddbd v1.5.1PL2 Copyright (c) Steve Scherf et al.
# Submitted via: CDex 1.51
#
DISCID=a10c9f0b
DTITLE=amel larrieux - infinite possibilities
DYEAR=1999
DGENRE=Rhythmic Soul
TTITLE0=get up
TTITLE1=i n i
TTITLE2=sweet misery
TTITLE3=searchin' for my soul
TTITLE4=even if
TTITLE5=infinite possibilities
TTITLE6=shine
TTITLE7=down
TTITLE8=weather
TTITLE9=make me whole
TTITLE10=extra
EXTD=YEAR: 1999
EXTT0=
EXTT1=
EXTT2=
EXTT3=
EXTT4=
EXTT5=
EXTT6=
EXTT7=
EXTT8=
EXTT9=
EXTT10=
PLAYORDER=
